<?xml version="1.0" encoding="utf-8"?>
<!-- Generator: Adobe Illustrator 27.5.0, SVG Export Plug-In . SVG Version: 6.00 Build 0)  -->
<svg version="1.1" id="Layer_1" xmlns="http://www.w3.org/2000/svg" xmlns:xlink="http://www.w3.org/1999/xlink" x="0px" y="0px"
	 viewBox="0 0 48 48" style="enable-background:new 0 0 48 48;" xml:space="preserve">
<style type="text/css">
	.st0{fill:#14181F;}
	.st1{fill:#D16C86;stroke:#14181F;stroke-miterlimit:10;}
</style>
<path class="st0" d="M5,0h38c2.8,0,5,2.2,5,5v38c0,2.8-2.2,5-5,5H5c-2.8,0-5-2.2-5-5V5C0,2.2,2.2,0,5,0z"/>
<g>
	<path class="st1" d="M5.8,41.4V16.6c0-3.1,0.9-5.6,2.8-7.5s4.3-2.9,7.3-2.9c3.5,0,6.2,1.6,8.1,4.9c1.2-1.7,2.4-3,3.7-3.7
		c1.3-0.7,3-1.1,4.9-1.1c3.1,0,5.5,1,7.1,2.9s2.5,4.8,2.5,8.4v23.9H32V19.1c0-1.1-0.1-1.8-0.3-2.2c-0.2-0.4-0.5-0.5-1.1-0.5
		c-1,0-1.5,0.9-1.5,2.6v22.5H18.9V19.1c0-1.1-0.1-1.8-0.3-2.2c-0.2-0.4-0.5-0.6-1.1-0.6c-1,0-1.5,0.9-1.5,2.7v22.4H5.8z"/>
</g>
</svg>
