<?xml version="1.0" encoding="utf-8"?>
<!-- Generator: Adobe Illustrator 27.5.0, SVG Export Plug-In . SVG Version: 6.00 Build 0)  -->
<svg version="1.1" id="Layer_1" xmlns="http://www.w3.org/2000/svg" xmlns:xlink="http://www.w3.org/1999/xlink" x="0px" y="0px"
	 viewBox="0 0 203 120" style="enable-background:new 0 0 203 120;" xml:space="preserve">
<style type="text/css">
	.st0{fill:#C7B1DD;}
	.st1{fill:#B1D4C2;}
	.st2{fill:#9EBBEF;}
	.st3{fill:#E3A7B7;}
</style>
<path class="st0" d="M198.2,18.7c0-1.2-0.3-1.8-1.6-1.8c-4.1,0-7.3-1.9-9.9-4.9c-1-1.1-2.1-2.2-3.2-3.2c-7.2-7-17.8-8-26-2.2
	c-2.7,1.9-5,4.3-7.2,6.7c-4,4.3-11.3,4.7-15.7,0.3c-0.8-0.8-1.6-1.6-2.4-2.4c-3.9-4.2-8.3-7.6-14.3-8.2c-0.5,0-0.9,0-1.4,0
	c-0.6,0-1.2,0-1.8,0c-0.6,0-1.2,0-1.8,0c-4,0.7-7.6,2.1-10.6,5c-2,1.9-4.2,3.6-6,5.7c-3.6,4-11.5,4.1-15.3-0.3
	c-1.1-1.3-2.4-2.5-3.7-3.7c-3.6-3.4-7.7-6-12.7-6.7c-0.6,0-1.2,0-1.8,0c-0.5,0-0.9,0-1.4,0c-0.6,0-1.2,0-1.8,0
	c-3.5,0.3-6.8,1.6-9.5,3.7c-2.4,1.9-4.4,4.3-6.7,6.3c-2.1,2-4.4,3.5-7.5,3.6c-3.7,0.2-6.5-1.1-9-3.7c-4.6-4.8-9.3-9.4-16.5-10
	C9.8,3,9.3,3,8.9,3C6.6,2.6,5.8,3.6,6.1,5.9c0.2,1.5,0.1,3,0,4.5c-0.1,1.6,0.4,2,2.1,2.3c2.1,0.3,4.4,0.9,6.2,2.1
	c2,1.2,3.6,3.1,5.3,4.8c3.4,3.4,7.4,5.8,12.2,6.5c1.4,0,2.7,0.1,4.1,0.1c0.5,0,0.9,0,1.4,0c0.2,0,0.3-0.1,0.5-0.1
	c4.2-0.5,7.7-2.2,10.8-5c2.1-2,4.2-4.1,6.4-6c2.9-2.6,6.4-3.1,10.1-2c3.2,0.9,5.3,3.3,7.4,5.6c4.7,5.1,10.1,8.1,17.3,7.5
	c0.5,0,0.9,0,1.4,0c3.4-0.4,6.6-1.4,9.3-3.6c3-2.5,5.8-5.3,8.7-7.8c3.4-3,9.3-3,12.7-0.1c1.5,1.3,3.1,2.6,4.5,4.1
	c4.6,5.2,10.2,8,17.3,7.5c0.3,0,0.6,0,0.9,0c3.6-0.4,7.1-1.4,9.9-3.9c2.5-2.2,4.9-4.6,7.4-6.9c4.1-3.8,10.5-3.8,14.5-0.1
	c1.3,1.2,2.5,2.4,3.7,3.6c4.5,4.5,9.6,7.6,16.3,7.3c1.3-0.1,2-0.3,1.9-1.7C198.1,22.5,198.1,20.6,198.2,18.7z"/>
<path class="st1" d="M198.1,75.4c0-0.5-0.9-1.5-1.3-1.4c-4.3,0.4-7-2-9.8-4.6c-2.8-2.6-5.6-5.3-8.9-7.1c-5.8-3.2-12.2-3-17.9,0
	c-3.3,1.8-6.1,4.6-8.8,7.3c-6,5.9-12.7,5.8-17.9,0c-1.7-1.9-3.6-3.6-5.6-5.2c-2.9-2.3-6.1-4.1-10-4c-0.5,0-0.9,0-1.4,0
	c-0.5,0-0.9,0-1.4,0c-0.6,0-1.2,0-1.8,0c-3-0.1-5.8,0.8-8.2,2.6c-3.1,2.4-5.9,5.2-8.9,7.8c-1.9,1.6-3.7,3.2-6.5,3
	c-0.8,0-1.5,0-2.3,0c-1.3-0.4-2.8-0.4-3.7-1.2c-2.6-2.1-5.1-4.3-7.5-6.7c-5.6-5.5-12.4-6.7-19.7-5.2c-5,1-8.5,4.5-11.9,8.1
	c-2.3,2.5-4.7,5.1-8.6,5c-0.6,0-1.2,0-1.8,0c-1.5-0.4-3.2-0.5-4.4-1.4c-2.7-2-5.1-4.4-7.6-6.7c-3.9-3.6-8.3-5.8-13.8-5.5
	c-1.7,0.1-2.5,0.4-2.3,2.2c0.2,1.6,0.2,3.2,0,4.7c-0.2,1.8,0.7,2.6,2.3,2.5c3.6-0.1,6.1,1.6,8.4,4.1c1.1,1.2,2.3,2.4,3.5,3.5
	c7.4,7.4,19.4,8.3,27.1,1.8c2.2-1.9,4.3-4,6.4-6c2-1.8,4-3.2,6.9-3.4c3.8-0.2,6.9,0.9,9.5,3.7c1.2,1.3,2.5,2.4,3.7,3.7
	c7.5,7.5,19.4,8.5,27.4,1.8c2.4-2,4.6-4.1,6.7-6.3c3.7-3.9,11.5-3.9,15.1,0.1c1.6,1.7,3.3,3.3,4.9,4.9c7.5,7.2,18.6,7.8,26.7,1.5
	c2.3-1.8,4.3-3.9,6.4-6c4.9-4.8,10.7-4.9,15.8-0.3c1.7,1.5,3.2,3.2,4.8,4.8c4.1,3.9,9,5.9,14.7,5.8c1.3,0,1.8-0.4,1.7-1.7
	C198.1,79.6,198.2,77.5,198.1,75.4z"/>
<path class="st2" d="M196.7,45.4c-3.9,0.1-7-1.6-9.5-4.4c-1-1.1-2.1-2.1-3.2-3.2c-7.8-7.4-18.4-8.6-26.5-2.7c-2.8,2-5.1,4.6-7.6,7
	c-4.5,4.2-10.4,4.3-15,0.2c-1.8-1.6-3.4-3.4-5.2-5.1c-8.1-7.8-20.4-7.8-28.4,0.1c-1.9,1.8-3.7,3.8-5.7,5.4
	c-4.6,3.7-9.7,3.5-14.1-0.4c-2-1.7-3.8-3.6-5.7-5.4c-7-6.6-17.5-7.5-25.3-1.9c-2.9,2.1-5.3,4.9-8,7.3c-4.6,4.1-10.3,4.1-14.8,0
	c-1.7-1.5-3.4-3-4.9-4.6c-4.4-4.5-9.8-6.5-16.1-6.2c-0.2,0.1-0.3,0.3-0.5,0.4c0,2.3,0,4.7-0.1,7c-0.1,1.5,0.3,2.2,2,2.1
	c2.6-0.1,4.9,0.7,6.8,2.5c2.3,2.1,4.6,4.3,6.8,6.5c5.9,5.7,16.8,6.4,22.7,2.5c3.7-2.4,6.8-5.6,10.1-8.6c3.7-3.3,9-4,12.9-1.4
	c1.8,1.2,3.3,2.9,4.9,4.3c2.3,1.9,4.4,4.2,6.9,5.7c6.5,3.7,17.4,3.3,24-3.5c1-1.1,2.1-2.1,3.1-3.2c5.9-6.4,11.7-6.5,17.9-0.5
	c1.9,1.8,3.7,3.7,5.8,5.4c5.9,4.9,15.6,5.8,22,1.7c3.1-2,5.9-4.7,8.6-7.2c5.7-5.5,11.4-5.6,17-0.1c1,1,2,2,3,3
	c4.6,4.8,10,7.4,16.7,6.6c0.3-0.2,0.5-0.3,0.8-0.5c0-2.3,0-4.7,0.1-7C198.2,46,197.9,45.4,196.7,45.4z"/>
<g>
	<path class="st3" d="M197.3,102.7c-0.5-0.1-1-0.3-1.5-0.3c-3.3,0.2-5.8-1.3-8-3.5c-1.7-1.6-3.3-3.3-4.9-4.9c-3.2-3-7-4.8-11.4-5.3
		c-0.3,0-0.6,0-0.9,0c-1.1,0-2.1,0-3.2,0c-0.3,0-0.6,0-0.9,0c-2.6,0.9-5.5,1.3-7.7,2.7c-3.3,2.2-6,5.2-8.9,7.9c-2,1.8-4.2,2.9-7,3.1
		c-4.6,0.4-7.5-2.1-10.3-5c-4.1-4.3-8.5-8-14.8-8.5c-0.5,0-0.9,0-1.4,0c0,0,0-0.1,0-0.1c-0.5,0-0.9,0.1-1.4,0.1
		c-0.3,0.3-0.5,0.5-0.8,0.8c0.3-0.3,0.5-0.5,0.8-0.8c-0.3,0-0.6-0.1-0.9-0.1c-0.1,0-0.3,0.1-0.4,0.1c-2.7,0.8-5.8,1-8,2.5
		c-3.6,2.4-6.7,5.6-10,8.6c-3.5,3.1-8.9,3.7-12.7,0.9c-2.3-1.7-4.2-3.8-6.3-5.8c-3.6-3.4-7.7-5.7-12.7-6.1c-0.2,0.3-0.4,0.5-0.6,0.8
		c0.2-0.3,0.4-0.5,0.6-0.8c-0.1,0-0.3-0.1-0.4-0.1c-0.3,0-0.6,0.1-0.9,0.1c-0.5,0-0.9,0-1.4,0c-0.3,0.3-0.5,0.5-0.8,0.8
		c0.3-0.3,0.5-0.5,0.8-0.8c-0.3,0-0.6-0.1-0.9-0.1c-0.1,0-0.3,0.1-0.4,0.1c-3.3,0.3-6.6,1-9.2,3.1c-2.4,1.9-4.7,4-6.8,6.2
		c-5.7,6-13.2,5.4-17.9-0.1c-1.2-1.4-2.5-2.6-3.8-3.8c-3.6-3.4-7.9-5.3-12.9-5.6c-0.9,0-1.8,0-2.7,0c-0.2,2.2-0.2,4.3-0.5,6.5
		c-0.3,2.2,0.6,3.2,2.8,3c0.3,0,0.6,0,0.9,0c1.3,0.4,2.7,0.6,3.7,1.3c2.5,2,4.8,4.3,7.1,6.5c7.1,7,18.2,7.2,24.7,2.9
		c2.5-1.7,4.8-3.9,6.9-6.1c6.6-6.9,13.4-6.2,19,0.1c1.3,1.5,2.8,2.8,4.2,4.1c6.1,5.9,18,6.1,23.7,1.8c3-2.3,5.7-4.9,8.4-7.5
		c4.1-4,11-4.6,15-0.5c2,2,4.1,3.9,6.2,5.9c7.1,6.6,18.6,6.9,26,0.7c2.2-1.9,4.1-4.2,6.4-6c1.7-1.3,3.8-2.2,5.8-3.2
		c0.5,0,0.9,0,1.4-0.1c0.5,0,0.9,0,1.4,0c0.3,0,0.6,0,0.9,0c1.3,0.4,2.7,0.6,3.7,1.3c2,1.5,4,3.2,5.7,5c4.5,4.6,9.6,7.6,16.3,7.2
		c0.5-0.4,1.1-0.9,1.6-1.3c-0.1-2.4-0.1-4.8-0.2-7.3C197.7,103.1,197.5,102.9,197.3,102.7z"/>
	<path class="st3" d="M198,110.5c-0.5,0.4-1.1,0.9-1.6,1.3C197.3,111.9,198.4,112.1,198,110.5z"/>
</g>
</svg>
