<?xml version="1.0" encoding="utf-8"?>
<!-- Generator: Adobe Illustrator 27.5.0, SVG Export Plug-In . SVG Version: 6.00 Build 0)  -->
<svg version="1.1" id="Layer_1" xmlns="http://www.w3.org/2000/svg" xmlns:xlink="http://www.w3.org/1999/xlink" x="0px" y="0px"
	 viewBox="0 0 203 120" style="enable-background:new 0 0 203 120;" xml:space="preserve">
<style type="text/css">
	.st0{fill:#C7B1DD;}
	.st1{fill:#E3A6B6;}
	.st2{fill:#B0D4C1;}
	.st3{fill:#8CAEEC;}
	.st4{fill:#FDFDFE;}
</style>
<path class="st0" d="M190,13.3c2.4,2.9,5.4,4.7,9.3,4.4c1.3-0.1,1.8,0.3,1.8,1.7c-0.1,2.2-0.1,4.5,0,6.7c0.1,1.5-0.6,1.8-1.9,1.8
	c-6.1,0.1-11.1-2.2-15.5-6.3c-1.4-1.3-2.8-2.7-4.2-4.1c-5.6-5.7-11.8-5.7-17.5-0.2c-2.3,2.2-4.3,4.6-6.9,6.5
	c-4.3,3.2-9,4.1-14.3,3.8c-2.6-0.2-5.1-0.5-7.4-1.7c-4.3-2.2-7.7-5.5-10.9-9.1c-2.5-2.8-5.6-3.4-9.2-3.3c-3.4,0.2-5.7,2.2-8,4.3
	c-0.1,0.1-0.2,0.2-0.4,0.4c-3.1,3.6-6.5,7.1-11.2,8.4c-7.2,2.1-14.1,1.6-20.3-3.2c-2.2-1.6-4.1-3.5-5.9-5.5c-5-5.8-13-6-18.4-0.2
	c-2.7,2.8-5.2,5.8-8.8,7.7c-8.1,4.3-16.9,3.3-23.9-2.5c-1.9-1.6-3.9-3.2-5.4-5.1C8,14.2,4.4,12.9,0,13.2C0,9.9,0,6.5,0,3.1
	c7.4-0.4,13.5,2.2,18.5,7.7c2.5,2.7,5,5.5,8.8,6.5c3.4,0.9,8.5-0.7,10.8-3.3C42,9.8,46.1,5.8,51.7,4c7-2.2,16.3-0.8,21.8,5.7
	c1.9,2.2,4.1,4.1,6.5,5.8c4.8,3.4,10.1,2.8,14.3-1.3c2.3-2.3,4.4-4.7,7.1-6.7c4.3-3.2,8.9-4.5,14.5-4.2c6.4,0.3,10.8,3.3,15.1,7.4
	c2.4,2.3,4.4,4.9,7.8,6.3c4.2,1.7,9.6-0.3,12.4-3.4c3.4-3.9,7.1-7.6,12.1-9.2c7.1-2.3,13.9-1.5,20.1,2.9c0.7,0.5,1.4,1,2.1,1.6
	C186.5,10.7,188,12.2,190,13.3z"/>
<path class="st1" d="M0,93c7.7-0.7,13.9,2.3,19.1,7.8c2.3,2.5,4.5,5.2,8.2,6c4.1,0.9,7.6,0.1,10.7-2.8c2.5-2.3,4.6-4.9,7.3-7
	c5.9-4.5,12.5-5.1,19.4-3.3c3.1,0.8,5.9,2.6,8.3,4.9c2.7,2.7,5.2,5.6,8.6,7.6c3.7,2.1,9.9,0.8,12.7-2.4c3.8-4.3,7.9-8.5,13.7-10
	c5.9-1.6,11.9-1.5,17.3,1.9c1.6,1,3.2,2.2,4.5,3.7c2.2,2.5,4.8,4.6,7.4,6.6c2.4,1.8,7.6,1.5,10.7-0.3c3.5-2,5.7-5.3,8.7-7.8
	c3.2-2.8,7-4.6,11.3-4.8c2.7-0.2,5.5-0.3,8.2,0.4c3.5,0.9,6.6,2.7,9.2,5.2c1.2,1.1,2.4,2.4,3.6,3.6c2.9,3.1,6.4,5.2,10.7,5.3
	c1,0,1.4,0.4,1.4,1.4c-0.1,2.3-0.1,4.6,0,6.9c0,1.2-0.5,1.4-1.6,1.5c-5.9,0.4-10.8-1.7-15.1-5.5c-2.4-2-4.5-4.3-6.7-6.4
	c-3.1-3.1-10.3-3.3-14.4,0.2c-2.6,2.2-4.8,4.9-7.4,7.1c-3.5,2.9-7.6,4.4-12.2,4.6c-7.1,0.4-12.7-2.5-17.6-7.3
	c-1.5-1.5-2.9-3.2-4.6-4.5c-4.1-3.3-10.7-3.7-16,1.7c-2.1,2.2-4.2,4.4-6.6,6.3c-7.3,5.7-19.9,5.4-27-1.7c-2.4-2.4-4.8-4.8-7.5-6.7
	c-4.4-3.2-10-2.7-14,1.1c-2.4,2.3-4.6,4.8-7.2,6.8c-6,4.7-12.8,5.3-19.9,3.5c-2.7-0.7-5.1-2.3-7.2-4.3c-1.5-1.4-3-2.7-4.4-4.2
	c-3.1-3.5-6.9-5.3-11.6-4.8C0,99.8,0,96.4,0,93z"/>
<path class="st2" d="M0,63.1c6.3-0.6,11.8,1.5,16.4,5.6c2.1,1.9,4,4,6.1,5.8c4.6,4,11.2,3.8,15.5-0.6c2.5-2.5,4.9-5,7.8-7.1
	c5-3.6,10.5-4.4,16.6-3.4c4.9,0.8,8.6,3.6,12,6.9c1.4,1.4,2.8,2.8,4.2,4.1c4.6,4.5,10,3.8,14.4,0.5c2.5-1.8,4.5-4,6.6-6.2
	c7.3-7.6,21.9-7.7,29.4,0.1c2,2.1,4,4.2,6.3,6c4.5,3.5,10.6,3.3,14.8-0.6c2.2-2.1,4.3-4.3,6.6-6.3c8-7.2,22-6.8,29.5,1.6
	c1.7,1.9,3.5,3.5,5.4,5.2c2.1,1.8,4.5,2.7,7.3,2.5c1.7-0.2,2.2,0.5,2.1,2.2c-0.1,2.1-0.1,4.2,0,6.3c0.1,1.3-0.4,1.7-1.7,1.8
	c-5.5,0.3-10.2-1.5-14.3-4.9c-2.3-1.9-4.4-3.9-6.4-6.1c-3.8-4.3-11.1-4.4-15.5-0.3c-2.5,2.3-4.7,5-7.5,7.1c-3.5,2.6-7.3,4-11.7,4.3
	c-7.2,0.4-12.8-2.2-17.6-7.3c-1.9-2-3.7-4.1-6.2-5.5c-5-2.7-10-1.8-14.4,2.3c-2.7,2.6-5,5.5-8.2,7.5c-2.9,1.8-6,2.9-9.5,3
	c-4.3,0.1-8.6-0.1-12.3-2.5c-3.3-2.2-6.5-4.7-8.9-7.9C63.3,72.7,55,71.3,50,76.5c-2.4,2.5-4.7,5-7.5,7.1c-3.3,2.4-7,3.5-11.1,3.8
	c-7.3,0.6-13-2.3-17.8-7.4c-1.6-1.7-3.2-3.3-5-4.8C6.2,73.2,3.1,73,0,73.2C0,69.8,0,66.4,0,63.1z"/>
<path class="st3" d="M0,33.1c8.3-0.6,14.6,2.9,19.9,9c2.6,3,5.8,5.6,10.2,5.5c3.1-0.1,5.9-1.3,8-3.7c2.9-3.2,6-6.2,9.8-8.4
	c4-2.4,8.4-2.7,13-2.3c6.1,0.5,10.6,3.9,14.6,8.2c0.9,0.9,1.8,1.9,2.7,2.7c5.6,5,10.7,4.6,16.3-0.3c2.7-2.4,4.9-5.2,7.9-7.2
	c7.7-5.4,20.4-4.5,26.9,2.6c2,2.2,4.1,4.3,6.5,6.1c4.8,3.5,10.3,3.1,14.5-1.1c2.7-2.7,5.2-5.5,8.4-7.6c4.6-3,9.5-3.8,15-3.2
	c5.7,0.7,9.9,3.5,13.7,7.4c1.6,1.6,3,3.3,4.9,4.6c2.1,1.5,4.3,2.5,6.9,2.3c1.6-0.1,2,0.5,1.9,1.9c-0.1,2.3-0.1,4.6,0,6.9
	c0,0.9-0.3,1.3-1.3,1.3c-4.8,0-9.3-0.9-13.2-4c-2.8-2.2-5.2-4.7-7.7-7.1c-4.4-4.2-10.9-5.4-16.2-0.3c-2.4,2.2-4.5,4.7-7,6.7
	c-1.6,1.3-3.3,2.5-5.2,3c-4.1,1-8.3,2.5-12.7,1.2c-0.8-0.2-1.7-0.4-2.3-1.2c-0.9-1.4-2.7-0.3-3.9-1.4c-2.3-1.9-4.8-3.6-6.7-6
	c-2.9-3.7-6.6-5.9-11.5-5.6c-3.6,0.2-6.1,2.4-8.5,4.6c-2.1,2-4.1,4.4-6.6,5.8c-2,1.1-4,2.3-6.3,3c-2.5,0.7-4.9,0.9-7.4,0.8
	c-3.7-0.1-7.3-1.1-10.2-3.4c-2.6-2-5.3-4-7.3-6.6c-4.5-5.7-12.8-5.3-17.7-0.2c-2.5,2.6-4.9,5.4-8.1,7.3c-2.8,1.7-5.7,2.5-8.9,2.9
	c-9.4,1.2-16-3.7-21.7-10.1c-3-3.3-6.5-4.3-10.6-4.2C0,39.8,0,36.5,0,33.1z"/>
<path class="st4" d="M190,13.3c-1.9-1.1-3.4-2.6-4.5-4.5C187.5,9.8,189,11.3,190,13.3z"/>
<path class="st4" d="M104.8,18.1c0.1-0.1,0.2-0.2,0.4-0.4C105,17.9,104.9,18,104.8,18.1z"/>
</svg>
