<?xml version="1.0" encoding="utf-8"?>
<!-- Generator: Adobe Illustrator 27.5.0, SVG Export Plug-In . SVG Version: 6.00 Build 0)  -->
<svg version="1.1" xmlns="http://www.w3.org/2000/svg" xmlns:xlink="http://www.w3.org/1999/xlink" x="0px" y="0px"
	 viewBox="0 0 24 24" style="enable-background:new 0 0 24 24;" xml:space="preserve">
<style type="text/css">
	.st0{fill:#ADCBF7;}
	.st1{fill:none;stroke:#36496D;stroke-width:1.25;stroke-miterlimit:10;}
	.st2{fill:none;stroke:#36496D;stroke-width:1.25;stroke-linecap:round;stroke-miterlimit:10;}
	.st3{fill:#FFFFFF;}
	.st4{fill:none;stroke:#364A6E;stroke-miterlimit:10;}
	.st5{fill:#36496D;}
</style>
<g id="Layer_2">
</g>
<g id="Layer_3">
	<rect x="0.9" y="16.3" class="st0" width="22" height="4.4"/>
	<path class="st1" d="M23.4,14.5c0,0.9-0.7,1.6-1.6,1.6H2.3c-0.9,0-1.6-0.7-1.6-1.6"/>
	<path class="st2" d="M23.4,14.3v4.1c0,0.9,0,2.4-1.6,2.4H2.3c-0.9,0-1.6-0.7-1.6-1.6v-17c0-0.9,0.7-1.6,1.6-1.6h19.5
		c0.9,0,1.6,0.7,1.6,1.6v7.9"/>
	<polyline class="st3" points="5.9,18.5 5.9,23 7.6,21.9 9.2,23.1 9.2,18.5 5.9,18.5 	"/>
	<polyline class="st4" points="5.9,18.5 5.9,23 7.6,21.9 9.2,23.1 9.2,18.5 5.9,18.5 	"/>
	<rect x="5.1" y="10.2" class="st0" width="13.8" height="3.5"/>
	<g>
		<path class="st5" d="M7.6,9.4H5.5C5.2,9.4,5.1,9.2,5.1,9V7.1c0-0.3,0.2-0.4,0.4-0.4h2.1c0.3,0,0.4,0.2,0.4,0.4
			c0,0.2-0.2,0.4-0.4,0.4H5.9v1h1.7c0.3,0,0.4,0.2,0.4,0.4C7.9,9.2,7.8,9.4,7.6,9.4L7.6,9.4z"/>
		<path class="st5" d="M16.4,7.2h2.1V9h-2.1C16.4,9,16.4,7.2,16.4,7.2z"/>
		<path class="st5" d="M18.5,9.5h-2.1c-0.3,0-0.4-0.2-0.4-0.4V7.2c0-0.3,0.2-0.4,0.4-0.4h2.1c0.3,0,0.4,0.2,0.4,0.4V9
			C18.9,9.3,18.8,9.5,18.5,9.5z M16.8,8.6h1.2v-1h-1.2V8.6z"/>
		<path class="st5" d="M9.1,7.1h2.1v1.8H9.1V7.1z"/>
		<path class="st5" d="M11.2,9.4H9.1C8.9,9.4,8.7,9.2,8.7,9V7.1c0-0.3,0.2-0.4,0.4-0.4h2.1c0.3,0,0.4,0.2,0.4,0.4V9
			C11.6,9.2,11.4,9.4,11.2,9.4z M9.5,8.5h1.2v-1H9.5V8.5L9.5,8.5z M14.8,9.4h-2.1c-0.3,0-0.4-0.2-0.4-0.4c0-0.3,0.2-0.4,0.4-0.4h1.7
			v-1h-1.7c-0.3,0-0.4-0.2-0.4-0.4c0-0.3,0.2-0.4,0.4-0.4h2.1c0.3,0,0.4,0.2,0.4,0.4V9C15.2,9.2,15,9.4,14.8,9.4z"/>
	</g>
	<g>
		<path class="st5" d="M12.8,3.7h2.1v1.8h-2.1C12.8,5.5,12.8,3.7,12.8,3.7z"/>
		<path class="st5" d="M14.9,6h-2.1c-0.3,0-0.4-0.2-0.4-0.4V3.7c0-0.3,0.2-0.4,0.4-0.4h2.1c0.3,0,0.4,0.2,0.4,0.4v1.8
			C15.3,5.8,15.1,6,14.9,6z M13.2,5.1h1.2v-1h-1.2V5.1z"/>
		<path class="st5" d="M5.5,3.6h2.1v1.8H5.5V3.6z"/>
		<path class="st5" d="M7.6,5.8H5.5c-0.3,0-0.4-0.2-0.4-0.4V3.6c0-0.3,0.2-0.4,0.4-0.4h2.1c0.3,0,0.4,0.2,0.4,0.4v1.8
			C7.9,5.6,7.8,5.8,7.6,5.8z M5.9,5h1.2V4H5.9V5L5.9,5z M11.2,5.8H9.1c-0.3,0-0.4-0.2-0.4-0.4C8.7,5.2,8.9,5,9.1,5h1.7v-1H9.1
			c-0.3,0-0.4-0.2-0.4-0.4c0-0.3,0.2-0.4,0.4-0.4h2.1c0.3,0,0.4,0.2,0.4,0.4v1.8C11.6,5.6,11.4,5.8,11.2,5.8z"/>
		<path class="st5" d="M16.5,5.8c0.2,0,0.4-0.2,0.4-0.4c0-0.2-0.2-0.4-0.4-0.4c-0.2,0-0.4,0.2-0.4,0.4C16,5.6,16.2,5.8,16.5,5.8z"/>
	</g>
	<line class="st2" x1="22.9" y1="18.5" x2="4" y2="18.5"/>
</g>
</svg>
