<?xml version="1.0" encoding="utf-8"?>
<!-- Generator: Adobe Illustrator 27.5.0, SVG Export Plug-In . SVG Version: 6.00 Build 0)  -->
<svg version="1.1" id="Layer_1" xmlns="http://www.w3.org/2000/svg" xmlns:xlink="http://www.w3.org/1999/xlink" x="0px" y="0px"
	 viewBox="0 0 24 24" style="enable-background:new 0 0 24 24;" xml:space="preserve">
<style type="text/css">
	.st0{clip-path:url(#SVGID_00000008864584149956031660000002682989585644479899_);}
	.st1{clip-path:url(#SVGID_00000058549830224956744780000006583768118914436798_);}
	.st2{fill:#36496D;}
	.st3{fill:#F7ADAD;}
</style>
<g>
	<defs>
		<rect id="SVGID_1_" width="24" height="24"/>
	</defs>
	<clipPath id="SVGID_00000138570495838396786990000005829979032398845092_">
		<use xlink:href="#SVGID_1_"  style="overflow:visible;"/>
	</clipPath>
	<g style="clip-path:url(#SVGID_00000138570495838396786990000005829979032398845092_);">
		<g>
			<defs>
				<rect id="SVGID_00000170276558716954003920000010704821072906688416_" width="24" height="24"/>
			</defs>
			<clipPath id="SVGID_00000069386459701304382580000005252209566845582998_">
				<use xlink:href="#SVGID_00000170276558716954003920000010704821072906688416_"  style="overflow:visible;"/>
			</clipPath>
			<g style="clip-path:url(#SVGID_00000069386459701304382580000005252209566845582998_);">
				<path class="st2" d="M13.9,20.2c-5.6,0-10.1-4.5-10.1-10.1c0-3.8,2.1-7.2,5.4-8.9c4.9-2.6,11-0.6,13.6,4.3c0.2,0.4,0,0.8-0.3,1
					c-0.4,0.2-0.8,0-1-0.3C19.3,1.9,14.2,0.3,10,2.5C5.8,4.7,4.2,9.8,6.3,14c2.2,4.2,7.4,5.8,11.5,3.6c2.9-1.5,4.7-4.5,4.6-7.8
					c0-0.4,0.3-0.8,0.7-0.8c0.4,0,0.8,0.3,0.8,0.7c0.1,5.6-4.3,10.2-9.8,10.3C14.1,20.2,14,20.2,13.9,20.2L13.9,20.2z"/>
				<path class="st3" d="M13.9,15.3c2.9,0,5.2-2.3,5.2-5.2c0-2.9-2.3-5.2-5.2-5.2c-2.9,0-5.2,2.3-5.2,5.2
					C8.7,13,11.1,15.3,13.9,15.3z"/>
				<path class="st2" d="M13.9,16c-3.3,0-6-2.7-6-6c0-3.3,2.7-6,6-6c3.3,0,6,2.7,6,6C19.9,13.4,17.2,16,13.9,16z M13.9,5.6
					c-2.5,0-4.5,2-4.5,4.5s2,4.5,4.5,4.5s4.5-2,4.5-4.5C18.4,7.6,16.4,5.6,13.9,5.6z M2.6,24C1.2,24,0,22.8,0,21.4
					c0-0.8,0.4-1.6,1-2.1l3.1-2.4c0.3-0.2,0.7-0.2,1,0.1l1.9,1.9c0.3,0.3,0.3,0.7,0.1,1L4.8,23c-0.5,0.6-1.2,1-1.9,1H2.6L2.6,24z
					 M4.5,18.5l-2.6,2c-0.5,0.4-0.6,1.1-0.2,1.6c0.4,0.5,1.1,0.6,1.6,0.2c0.1-0.1,0.2-0.1,0.2-0.2l2-2.6L4.5,18.5z"/>
			</g>
		</g>
	</g>
</g>
</svg>
