<?xml version="1.0" encoding="utf-8"?>
<!-- Generator: Adobe Illustrator 27.5.0, SVG Export Plug-In . SVG Version: 6.00 Build 0)  -->
<svg version="1.1" id="Layer_1" xmlns="http://www.w3.org/2000/svg" xmlns:xlink="http://www.w3.org/1999/xlink" x="0px" y="0px"
	 viewBox="0 0 24 24" style="enable-background:new 0 0 24 24;" xml:space="preserve">
<style type="text/css">
	.st0{display:none;}
	.st1{display:inline;}
	.st2{clip-path:url(#SVGID_00000111165840306887778660000012501017408764248206_);}
	.st3{fill:#F5F7AD;}
	.st4{fill:#36496D;}
</style>
<g id="Layer_1_00000014604931360628108300000006851674282768938155_" class="st0">
	<g class="st1">
		<g>
			<g>
				<defs>
					<rect id="SVGID_1_" y="2" width="24" height="20"/>
				</defs>
				<clipPath id="SVGID_00000158732896706151793990000016226058743974769341_">
					<use xlink:href="#SVGID_1_"  style="overflow:visible;"/>
				</clipPath>
				<g style="clip-path:url(#SVGID_00000158732896706151793990000016226058743974769341_);">
					<path class="st3" d="M8.8,18.6h6.5v2.8H8.8V18.6z"/>
					<path class="st4" d="M21.6,2H2.4C1.1,2,0,3.1,0,4.4v12.4c0,1.3,1.1,2.4,2.4,2.4h5.7v1.4H6.7c-0.4,0-0.7,0.3-0.7,0.7
						S6.4,22,6.7,22h10.5c0.4,0,0.7-0.3,0.7-0.7s-0.3-0.7-0.7-0.7h-1.3v-2c0-0.1,0-0.1,0-0.2c0-0.4-0.3-0.7-0.7-0.7H2.4
						c-0.6,0-1.1-0.5-1.1-1.1V4.4c0-0.6,0.5-1.1,1.1-1.1h19.1c0.6,0,1.1,0.5,1.1,1.1v12.4c0,0.6-0.5,1.1-1.1,1.1h-2.2
						c-0.4,0-0.7,0.3-0.7,0.7c0,0.4,0.3,0.7,0.7,0.7h2.2c1.3,0,2.4-1.1,2.4-2.4V4.4C24,3.1,22.9,2,21.6,2z M14.6,19.2v1.4H9.4v-1.4
						H14.6L14.6,19.2z"/>
					<path class="st3" d="M10.3,14.7c-0.6-0.9-0.3-2.2,0.6-2.8c0.9-0.6,2.2-0.3,2.8,0.6c0.4,0.7,0.4,1.5,0,2.2h4.7v-2.4L17,12.1
						c-0.2-0.8-0.6-1.5-1.2-2l0.5-1.3l-2.2-1.3l-0.9,1.1c-0.8-0.2-1.6-0.2-2.4,0L9.9,7.5L7.7,8.8l0.5,1.3c-0.5,0.6-1,1.3-1.2,2
						l-1.4,0.2v2.4L10.3,14.7L10.3,14.7z"/>
					<path class="st4" d="M18.4,15.4h-4.7c-0.4,0-0.7-0.3-0.7-0.7c0-0.1,0-0.3,0.1-0.4c0.4-0.6,0.2-1.4-0.4-1.8
						c-0.6-0.4-1.4-0.2-1.8,0.4c-0.3,0.4-0.3,1,0,1.4c0.2,0.3,0.1,0.7-0.2,0.9c-0.1,0.1-0.2,0.1-0.4,0.1H5.6c-0.4,0-0.7-0.3-0.7-0.7
						v-2.4c0-0.3,0.2-0.6,0.6-0.7l1-0.2C6.7,11,7,10.4,7.4,10L7.1,9C7,8.7,7.1,8.3,7.4,8.2l2.2-1.3c0.3-0.2,0.7-0.1,0.9,0.2l0.7,0.8
						c0.6-0.1,1.2-0.1,1.8,0L13.6,7c0.2-0.3,0.6-0.3,0.9-0.2l2.2,1.3C16.9,8.3,17.1,8.7,17,9l-0.4,1c0.4,0.5,0.7,1,0.9,1.6l1,0.2
						c0.3,0.1,0.6,0.3,0.6,0.7v2.4C19.1,15.1,18.8,15.4,18.4,15.4L18.4,15.4z M14.6,14.1h3.1V13l-0.9-0.1c-0.3,0-0.5-0.2-0.5-0.5
						c-0.2-0.7-0.6-1.3-1-1.8c-0.2-0.2-0.2-0.5-0.1-0.7L15.5,9l-1.2-0.7L13.7,9c-0.2,0.2-0.4,0.3-0.7,0.2c-0.7-0.2-1.4-0.2-2.1,0
						c-0.3,0.1-0.5,0-0.7-0.2L9.7,8.3L8.5,9l0.3,0.8c0.1,0.2,0,0.5-0.1,0.7c-0.5,0.5-0.8,1.1-1,1.8c-0.1,0.2-0.3,0.4-0.5,0.5
						l-0.9,0.1V14h3.1c0-0.1,0-0.3,0-0.4c0-1.5,1.2-2.7,2.7-2.6c1.5,0,2.6,1.2,2.6,2.6C14.7,13.8,14.7,13.9,14.6,14.1z"/>
				</g>
			</g>
		</g>
	</g>
</g>
<g id="Layer_2_00000140697307357484189450000002458318317021310855_">
	<g>
		<path class="st4" d="M13.1,24c-3.6,0-7.8-1.7-9.9-4.2C1,17.2,0,13.3,0.5,9.8C0.9,7.5,2.1,4.3,5.7,2c2.8-1.8,6.4-2.3,9.8-1.3
			c3.4,0.9,6.1,3.1,7.6,5.9c1.3,3.1,0.5,5.7-0.8,6.7c-0.9,0.7-1.9,0.7-2.9,0.1c-0.3-0.2-0.4-0.6-0.2-0.9c0.2-0.3,0.6-0.4,0.9-0.2
			c0.6,0.4,1,0.2,1.4-0.1c1-0.8,1.4-2.8,0.4-5.2c-1.3-2.5-3.7-4.4-6.7-5.3C12.1,1,8.8,1.5,6.3,3c-3.2,2-4.3,4.9-4.6,6.9
			c-0.5,3.2,0.4,6.7,2.4,9c2.1,2.5,7,4.2,10.4,3.6c1.2-0.2,2.9-0.8,3.5-2.6c0.3-0.9,0.3-2.1-1-2.8c-0.7-0.4-1.4-0.7-2-1.2
			c-0.4-0.3-0.7-0.7-0.9-1.2c-0.5-1.2-0.2-2.5,0.8-3.2c0.9-0.7,2.2-0.7,2.9-0.1c0.3,0.2,0.3,0.6,0.1,0.9c-0.2,0.3-0.6,0.3-0.9,0.1
			c-0.3-0.3-0.9-0.2-1.3,0.1c-0.3,0.2-0.8,0.8-0.4,1.7c0.1,0.3,0.3,0.5,0.6,0.7c0.5,0.4,1.1,0.7,1.8,1.1c1.9,1,2.2,2.9,1.6,4.3
			c-0.7,1.8-2.2,3-4.5,3.4C14.3,24,13.7,24,13.1,24z"/>
	</g>
	<g>
		<circle class="st3" cx="16" cy="7.3" r="2.1"/>
		<path class="st4" d="M16,10c-1.5,0-2.7-1.2-2.7-2.7s1.2-2.7,2.7-2.7s2.7,1.2,2.7,2.7S17.5,10,16,10z M16,5.8
			c-0.8,0-1.5,0.7-1.5,1.5c0,0.8,0.7,1.5,1.5,1.5s1.5-0.7,1.5-1.5C17.5,6.5,16.8,5.8,16,5.8z"/>
	</g>
	<g>
		<circle class="st3" cx="8.6" cy="6.8" r="2.1"/>
		<path class="st4" d="M8.6,9.5c-1.5,0-2.7-1.2-2.7-2.7s1.2-2.7,2.7-2.7s2.7,1.2,2.7,2.7S10.1,9.5,8.6,9.5z M8.6,5.3
			C7.8,5.3,7.1,6,7.1,6.8c0,0.8,0.7,1.5,1.5,1.5s1.5-0.7,1.5-1.5C10.1,6,9.4,5.3,8.6,5.3z"/>
	</g>
	<g>
		<circle class="st3" cx="5.9" cy="13.5" r="2.1"/>
		<path class="st4" d="M5.9,16.2c-1.5,0-2.7-1.2-2.7-2.7c0-1.5,1.2-2.7,2.7-2.7s2.7,1.2,2.7,2.7C8.6,15,7.4,16.2,5.9,16.2z M5.9,12
			c-0.8,0-1.5,0.7-1.5,1.5S5.1,15,5.9,15s1.5-0.7,1.5-1.5S6.7,12,5.9,12z"/>
	</g>
	<g>
		<circle class="st3" cx="11.2" cy="18.2" r="2.1"/>
		<path class="st4" d="M11.2,20.9c-1.5,0-2.7-1.2-2.7-2.7c0-1.5,1.2-2.7,2.7-2.7s2.7,1.2,2.7,2.7C13.9,19.7,12.7,20.9,11.2,20.9z
			 M11.2,16.7c-0.8,0-1.5,0.7-1.5,1.5s0.7,1.5,1.5,1.5c0.8,0,1.5-0.7,1.5-1.5S12,16.7,11.2,16.7z"/>
	</g>
</g>
</svg>
