<?xml version="1.0" encoding="utf-8"?>
<!-- Generator: Adobe Illustrator 27.5.0, SVG Export Plug-In . SVG Version: 6.00 Build 0)  -->
<svg version="1.1" id="Layer_1" xmlns="http://www.w3.org/2000/svg" xmlns:xlink="http://www.w3.org/1999/xlink" x="0px" y="0px"
	 viewBox="0 0 166.2 24" style="enable-background:new 0 0 166.2 24;" xml:space="preserve">
<style type="text/css">
	.st0{fill:#182A43;}
</style>
<path class="st0" d="M34.5,10.1v13.3h-7.4V10.3C27.1,8.1,25.9,7,24,7c-1.9,0-3.3,1.2-3.3,3.6v12.8h-7.4V10.3c0-2.2-1.1-3.3-2.9-3.3
	c-1.8,0-3,1.2-3,3.6v12.8H0V1.5h7.1v2.2c1.3-1.8,3.3-2.7,6-2.7c2.8,0,4.9,1,6.2,2.9c1.6-2,4-2.9,6.8-2.9C31.4,1,34.5,4.2,34.5,10.1z
	"/>
<path class="st0" d="M59.3,11.7v11.7h-7.4V19h-6.9v4.4h-7.3V11.7C37.7,4.9,42.1,1,48.5,1C54.8,1,59.3,4.9,59.3,11.7z M51.9,13.4
	v-2.3c0-2.8-1.5-4.1-3.5-4.1c-2,0-3.5,1.3-3.5,4.1v2.3H51.9z"/>
<path class="st0" d="M62.6,1.5H70v16.2h9.9v5.7H62.6V1.5z"/>
<path class="st0" d="M103.9,1.5l-9.3,21.9h-7.3L78.1,1.5h7.9l5.2,12.8l5.3-12.8H103.9z"/>
<path class="st0" d="M115,7.1v10.8h3.3v5.6h-13.9v-5.6h3.3V7.1h-3.3V1.5h13.9v5.6H115z"/>
<path class="st0" d="M130.1,16.1l-1.7,1.8v5.4h-7.3V1.5h7.3v7.9l7.2-7.9h8l-8.8,9.6l9.2,12.3h-8.5L130.1,16.1z"/>
<path class="st0" d="M166.2,11.7v11.7h-7.4V19h-6.9v4.4h-7.3V11.7C144.6,4.9,149,1,155.4,1C161.8,1,166.2,4.9,166.2,11.7z
	 M158.8,13.4v-2.3c0-2.8-1.5-4.1-3.5-4.1s-3.5,1.3-3.5,4.1v2.3H158.8z"/>
</svg>
